# Blender 5.0.1
# www.blender.org
mtllib cylinder_triangulated.mtl
o Cylinder
v 0.000000 -1.000000 0.000000
v 0.000000 1.000000 0.000000
v 0.195090 1.000000 -0.980785
v 0.000000 1.000000 -1.000000
v 0.382683 1.000000 -0.923880
v 0.555570 1.000000 -0.831470
v 0.707107 1.000000 -0.707107
v 0.831470 1.000000 -0.555570
v 0.923880 1.000000 -0.382683
v 0.980785 1.000000 -0.195090
v 1.000000 1.000000 0.000000
v 0.980785 1.000000 0.195090
v 0.923880 1.000000 0.382683
v 0.831470 1.000000 0.555570
v 0.707107 1.000000 0.707107
v 0.555570 1.000000 0.831470
v 0.382683 1.000000 0.923880
v 0.195090 1.000000 0.980785
v 0.000000 1.000000 1.000000
v -0.195090 1.000000 0.980785
v -0.382683 1.000000 0.923880
v -0.555570 1.000000 0.831470
v -0.707107 1.000000 0.707107
v -0.831470 1.000000 0.555570
v -0.923880 1.000000 0.382683
v -0.980785 1.000000 0.195090
v -1.000000 1.000000 0.000000
v -0.980785 1.000000 -0.195090
v -0.923880 1.000000 -0.382683
v -0.831470 1.000000 -0.555570
v -0.707107 1.000000 -0.707107
v -0.555570 1.000000 -0.831470
v -0.382683 1.000000 -0.923880
v -0.195090 1.000000 -0.980785
v 0.000000 -1.000000 -1.000000
v 0.195090 -1.000000 -0.980785
v 0.382683 -1.000000 -0.923880
v 0.555570 -1.000000 -0.831470
v 0.707107 -1.000000 -0.707107
v 0.831470 -1.000000 -0.555570
v 0.923880 -1.000000 -0.382683
v 0.980785 -1.000000 -0.195090
v 1.000000 -1.000000 0.000000
v 0.980785 -1.000000 0.195090
v 0.923880 -1.000000 0.382683
v 0.831470 -1.000000 0.555570
v 0.707107 -1.000000 0.707107
v 0.555570 -1.000000 0.831470
v 0.382683 -1.000000 0.923880
v 0.195090 -1.000000 0.980785
v 0.000000 -1.000000 1.000000
v -0.195090 -1.000000 0.980785
v -0.382683 -1.000000 0.923880
v -0.555570 -1.000000 0.831470
v -0.707107 -1.000000 0.707107
v -0.831470 -1.000000 0.555570
v -0.923880 -1.000000 0.382683
v -0.980785 -1.000000 0.195090
v -1.000000 -1.000000 0.000000
v -0.980785 -1.000000 -0.195090
v -0.923880 -1.000000 -0.382683
v -0.831470 -1.000000 -0.555570
v -0.707107 -1.000000 -0.707107
v -0.555570 -1.000000 -0.831470
v -0.382683 -1.000000 -0.923880
v -0.195090 -1.000000 -0.980785
vn 0.0980 -0.0000 -0.9952
vn 0.2903 -0.0000 -0.9569
vn 0.4714 -0.0000 -0.8819
vn 0.6344 -0.0000 -0.7730
vn 0.7730 -0.0000 -0.6344
vn 0.8819 -0.0000 -0.4714
vn 0.9569 -0.0000 -0.2903
vn 0.9952 -0.0000 -0.0980
vn 0.9952 -0.0000 0.0980
vn 0.9569 -0.0000 0.2903
vn 0.8819 -0.0000 0.4714
vn 0.7730 -0.0000 0.6344
vn 0.6344 -0.0000 0.7730
vn 0.4714 -0.0000 0.8819
vn 0.2903 -0.0000 0.9569
vn 0.0980 -0.0000 0.9952
vn -0.0980 -0.0000 0.9952
vn -0.2903 -0.0000 0.9569
vn -0.4714 -0.0000 0.8819
vn -0.6344 -0.0000 0.7730
vn -0.7730 -0.0000 0.6344
vn -0.8819 -0.0000 0.4714
vn -0.9569 -0.0000 0.2903
vn -0.9952 -0.0000 0.0980
vn -0.9952 -0.0000 -0.0980
vn -0.9569 -0.0000 -0.2903
vn -0.8819 -0.0000 -0.4714
vn -0.7730 -0.0000 -0.6344
vn -0.6344 -0.0000 -0.7730
vn -0.4714 -0.0000 -0.8819
vn -0.2903 -0.0000 -0.9569
vn -0.0980 -0.0000 -0.9952
vn -0.0000 1.0000 -0.0000
vn -0.0000 -1.0000 -0.0000
vt 1.000000 0.500000
vt 0.968750 1.000000
vt 0.968750 0.500000
vt 0.937500 1.000000
vt 0.937500 0.500000
vt 0.906250 1.000000
vt 0.906250 0.500000
vt 0.875000 1.000000
vt 0.875000 0.500000
vt 0.843750 1.000000
vt 0.843750 0.500000
vt 0.812500 1.000000
vt 0.812500 0.500000
vt 0.781250 1.000000
vt 0.781250 0.500000
vt 0.750000 1.000000
vt 0.750000 0.500000
vt 0.718750 1.000000
vt 0.718750 0.500000
vt 0.687500 1.000000
vt 0.687500 0.500000
vt 0.656250 1.000000
vt 0.656250 0.500000
vt 0.625000 1.000000
vt 0.625000 0.500000
vt 0.593750 1.000000
vt 0.593750 0.500000
vt 0.562500 1.000000
vt 0.562500 0.500000
vt 0.531250 1.000000
vt 0.531250 0.500000
vt 0.500000 1.000000
vt 0.500000 0.500000
vt 0.468750 1.000000
vt 0.468750 0.500000
vt 0.437500 1.000000
vt 0.437500 0.500000
vt 0.406250 1.000000
vt 0.406250 0.500000
vt 0.375000 1.000000
vt 0.375000 0.500000
vt 0.343750 1.000000
vt 0.343750 0.500000
vt 0.312500 1.000000
vt 0.312500 0.500000
vt 0.281250 1.000000
vt 0.281250 0.500000
vt 0.250000 1.000000
vt 0.250000 0.500000
vt 0.218750 1.000000
vt 0.218750 0.500000
vt 0.187500 1.000000
vt 0.187500 0.500000
vt 0.156250 1.000000
vt 0.156250 0.500000
vt 0.125000 1.000000
vt 0.125000 0.500000
vt 0.093750 1.000000
vt 0.093750 0.500000
vt 0.062500 1.000000
vt 0.062500 0.500000
vt 0.031250 1.000000
vt 0.031250 0.500000
vt 0.000000 1.000000
vt 0.000000 0.500000
vt 0.249773 0.248861
vt 0.296822 0.485388
vt 0.250000 0.490000
vt 0.249556 0.248927
vt 0.341844 0.471731
vt 0.249355 0.249035
vt 0.383337 0.449553
vt 0.249179 0.249179
vt 0.419706 0.419706
vt 0.249034 0.249355
vt 0.449553 0.383337
vt 0.248927 0.249556
vt 0.471731 0.341844
vt 0.248861 0.249773
vt 0.485388 0.296822
vt 0.248839 0.250000
vt 0.490000 0.250000
vt 0.248861 0.250227
vt 0.485388 0.203178
vt 0.248927 0.250444
vt 0.471731 0.158156
vt 0.249034 0.250645
vt 0.449553 0.116663
vt 0.249179 0.250821
vt 0.419706 0.080294
vt 0.249355 0.250966
vt 0.383337 0.050447
vt 0.249556 0.251073
vt 0.341844 0.028269
vt 0.249773 0.251139
vt 0.296822 0.014612
vt 0.250000 0.251161
vt 0.250000 0.010000
vt 0.250227 0.251139
vt 0.203178 0.014612
vt 0.250444 0.251073
vt 0.158156 0.028269
vt 0.250645 0.250966
vt 0.116663 0.050447
vt 0.250821 0.250821
vt 0.080294 0.080294
vt 0.250966 0.250645
vt 0.050447 0.116663
vt 0.251073 0.250444
vt 0.028269 0.158156
vt 0.251139 0.250227
vt 0.014612 0.203178
vt 0.251161 0.250000
vt 0.010000 0.250000
vt 0.251139 0.249773
vt 0.014612 0.296822
vt 0.251073 0.249556
vt 0.028269 0.341844
vt 0.250966 0.249355
vt 0.050447 0.383337
vt 0.250821 0.249179
vt 0.080294 0.419706
vt 0.250645 0.249034
vt 0.116663 0.449553
vt 0.250444 0.248927
vt 0.158156 0.471731
vt 0.250227 0.248861
vt 0.203178 0.485388
vt 0.250000 0.248839
vt 0.750000 0.248839
vt 0.750000 0.490000
vt 0.796822 0.485388
vt 0.749774 0.248861
vt 0.841844 0.471731
vt 0.749556 0.248927
vt 0.883337 0.449553
vt 0.749355 0.249034
vt 0.919706 0.419706
vt 0.749179 0.249179
vt 0.949553 0.383337
vt 0.749034 0.249355
vt 0.971731 0.341844
vt 0.748927 0.249556
vt 0.985388 0.296822
vt 0.748861 0.249773
vt 0.990000 0.250000
vt 0.748839 0.250000
vt 0.985388 0.203178
vt 0.748861 0.250227
vt 0.971731 0.158156
vt 0.748927 0.250444
vt 0.949553 0.116663
vt 0.749035 0.250645
vt 0.919706 0.080294
vt 0.749179 0.250821
vt 0.883337 0.050447
vt 0.749355 0.250966
vt 0.841844 0.028269
vt 0.749556 0.251073
vt 0.796822 0.014612
vt 0.749774 0.251139
vt 0.750000 0.010000
vt 0.750000 0.251161
vt 0.703178 0.014612
vt 0.750227 0.251139
vt 0.658156 0.028269
vt 0.750444 0.251073
vt 0.616663 0.050447
vt 0.750645 0.250966
vt 0.580294 0.080294
vt 0.750821 0.250821
vt 0.550447 0.116663
vt 0.750966 0.250645
vt 0.528269 0.158156
vt 0.751073 0.250444
vt 0.514612 0.203178
vt 0.751139 0.250227
vt 0.510000 0.250000
vt 0.751162 0.250000
vt 0.514612 0.296822
vt 0.751139 0.249773
vt 0.528269 0.341844
vt 0.751073 0.249556
vt 0.550447 0.383337
vt 0.750966 0.249355
vt 0.580294 0.419706
vt 0.750821 0.249179
vt 0.616663 0.449553
vt 0.750645 0.249034
vt 0.658156 0.471731
vt 0.750444 0.248927
vt 0.703178 0.485388
vt 0.750227 0.248861
vt 1.000000 1.000000
s 0
f 35/1/1 3/2/1 36/3/1
f 36/3/2 5/4/2 37/5/2
f 37/5/3 6/6/3 38/7/3
f 38/7/4 7/8/4 39/9/4
f 39/9/5 8/10/5 40/11/5
f 40/11/6 9/12/6 41/13/6
f 41/13/7 10/14/7 42/15/7
f 42/15/8 11/16/8 43/17/8
f 43/17/9 12/18/9 44/19/9
f 44/19/10 13/20/10 45/21/10
f 45/21/11 14/22/11 46/23/11
f 46/23/12 15/24/12 47/25/12
f 47/25/13 16/26/13 48/27/13
f 48/27/14 17/28/14 49/29/14
f 49/29/15 18/30/15 50/31/15
f 50/31/16 19/32/16 51/33/16
f 51/33/17 20/34/17 52/35/17
f 52/35/18 21/36/18 53/37/18
f 53/37/19 22/38/19 54/39/19
f 54/39/20 23/40/20 55/41/20
f 55/41/21 24/42/21 56/43/21
f 56/43/22 25/44/22 57/45/22
f 57/45/23 26/46/23 58/47/23
f 58/47/24 27/48/24 59/49/24
f 59/49/25 28/50/25 60/51/25
f 60/51/26 29/52/26 61/53/26
f 61/53/27 30/54/27 62/55/27
f 62/55/28 31/56/28 63/57/28
f 63/57/29 32/58/29 64/59/29
f 64/59/30 33/60/30 65/61/30
f 65/61/31 34/62/31 66/63/31
f 66/63/32 4/64/32 35/65/32
f 2/66/33 3/67/33 4/68/33
f 2/69/33 5/70/33 3/67/33
f 2/71/33 6/72/33 5/70/33
f 2/73/33 7/74/33 6/72/33
f 2/75/33 8/76/33 7/74/33
f 2/77/33 9/78/33 8/76/33
f 2/79/33 10/80/33 9/78/33
f 2/81/33 11/82/33 10/80/33
f 2/83/33 12/84/33 11/82/33
f 2/85/33 13/86/33 12/84/33
f 2/87/33 14/88/33 13/86/33
f 2/89/33 15/90/33 14/88/33
f 2/91/33 16/92/33 15/90/33
f 2/93/33 17/94/33 16/92/33
f 2/95/33 18/96/33 17/94/33
f 2/97/33 19/98/33 18/96/33
f 2/99/33 20/100/33 19/98/33
f 2/101/33 21/102/33 20/100/33
f 2/103/33 22/104/33 21/102/33
f 2/105/33 23/106/33 22/104/33
f 2/107/33 24/108/33 23/106/33
f 2/109/33 25/110/33 24/108/33
f 2/111/33 26/112/33 25/110/33
f 2/113/33 27/114/33 26/112/33
f 2/115/33 28/116/33 27/114/33
f 2/117/33 29/118/33 28/116/33
f 2/119/33 30/120/33 29/118/33
f 2/121/33 31/122/33 30/120/33
f 2/123/33 32/124/33 31/122/33
f 2/125/33 33/126/33 32/124/33
f 2/127/33 34/128/33 33/126/33
f 2/129/33 4/68/33 34/128/33
f 1/130/34 35/131/34 36/132/34
f 1/133/34 36/132/34 37/134/34
f 1/135/34 37/134/34 38/136/34
f 1/137/34 38/136/34 39/138/34
f 1/139/34 39/138/34 40/140/34
f 1/141/34 40/140/34 41/142/34
f 1/143/34 41/142/34 42/144/34
f 1/145/34 42/144/34 43/146/34
f 1/147/34 43/146/34 44/148/34
f 1/149/34 44/148/34 45/150/34
f 1/151/34 45/150/34 46/152/34
f 1/153/34 46/152/34 47/154/34
f 1/155/34 47/154/34 48/156/34
f 1/157/34 48/156/34 49/158/34
f 1/159/34 49/158/34 50/160/34
f 1/161/34 50/160/34 51/162/34
f 1/163/34 51/162/34 52/164/34
f 1/165/34 52/164/34 53/166/34
f 1/167/34 53/166/34 54/168/34
f 1/169/34 54/168/34 55/170/34
f 1/171/34 55/170/34 56/172/34
f 1/173/34 56/172/34 57/174/34
f 1/175/34 57/174/34 58/176/34
f 1/177/34 58/176/34 59/178/34
f 1/179/34 59/178/34 60/180/34
f 1/181/34 60/180/34 61/182/34
f 1/183/34 61/182/34 62/184/34
f 1/185/34 62/184/34 63/186/34
f 1/187/34 63/186/34 64/188/34
f 1/189/34 64/188/34 65/190/34
f 1/191/34 65/190/34 66/192/34
f 1/193/34 66/192/34 35/131/34
f 35/1/1 4/194/1 3/2/1
f 36/3/2 3/2/2 5/4/2
f 37/5/3 5/4/3 6/6/3
f 38/7/4 6/6/4 7/8/4
f 39/9/5 7/8/5 8/10/5
f 40/11/6 8/10/6 9/12/6
f 41/13/7 9/12/7 10/14/7
f 42/15/8 10/14/8 11/16/8
f 43/17/9 11/16/9 12/18/9
f 44/19/10 12/18/10 13/20/10
f 45/21/11 13/20/11 14/22/11
f 46/23/12 14/22/12 15/24/12
f 47/25/13 15/24/13 16/26/13
f 48/27/14 16/26/14 17/28/14
f 49/29/15 17/28/15 18/30/15
f 50/31/16 18/30/16 19/32/16
f 51/33/17 19/32/17 20/34/17
f 52/35/18 20/34/18 21/36/18
f 53/37/19 21/36/19 22/38/19
f 54/39/20 22/38/20 23/40/20
f 55/41/21 23/40/21 24/42/21
f 56/43/22 24/42/22 25/44/22
f 57/45/23 25/44/23 26/46/23
f 58/47/24 26/46/24 27/48/24
f 59/49/25 27/48/25 28/50/25
f 60/51/26 28/50/26 29/52/26
f 61/53/27 29/52/27 30/54/27
f 62/55/28 30/54/28 31/56/28
f 63/57/29 31/56/29 32/58/29
f 64/59/30 32/58/30 33/60/30
f 65/61/31 33/60/31 34/62/31
f 66/63/32 34/62/32 4/64/32
